<?xml version="1.0" encoding="UTF-8" standalone="no"?>
<!-- Created with Inkscape (http://www.inkscape.org/) -->

<svg
   xmlns:dc="http://purl.org/dc/elements/1.1/"
   xmlns:cc="http://creativecommons.org/ns#"
   xmlns:rdf="http://www.w3.org/1999/02/22-rdf-syntax-ns#"
   xmlns:svg="http://www.w3.org/2000/svg"
   xmlns="http://www.w3.org/2000/svg"
   xmlns:inkscape="http://www.inkscape.org/namespaces/inkscape"
   version="1.1"
   width="430.625"
   height="111.7125"
   id="svg2"
   xml:space="preserve"><metadata
     id="metadata8"><rdf:RDF><cc:Work
         rdf:about=""><dc:format>image/svg+xml</dc:format><dc:type
           rdf:resource="http://purl.org/dc/dcmitype/StillImage" /></cc:Work></rdf:RDF></metadata><defs
     id="defs6" /><g
     transform="matrix(1.25,0,0,-1.25,0,111.7125)"
     id="g10"><g
       transform="scale(0.1,0.1)"
       id="g12"><path
         d="m 1309.03,141.25 c 0,-43.8281 28.47,-63.8281 65.38,-63.8281 51.46,0 63.21,33.9651 63.21,66.3281 l 0,88.73 c 0,27.793 -25.42,16.465 -25.42,26.719 0,1.367 1.89,2.656 2.72,2.656 10.67,0 21.34,-0.937 31.99,-0.937 5.19,0 10.12,0.937 15.1,0.937 1.35,0 3.51,-1.289 3.51,-2.968 0,-7.481 -16.17,-1.543 -16.17,-26.641 l 0,-84.922 c 0,-13.476 3.3,-81.1131 -76.3,-81.1131 -71.96,0 -85.61,40.2541 -85.61,82.4611 l 0,92.324 c 0,16.094 -22.21,9.59 -22.21,18.203 0,1.875 4.67,2.656 6.03,2.656 7.12,0 13.97,-0.937 21.35,-0.937 8.76,0 17.5,0.937 25.98,0.937 1.39,0 8.77,0.567 8.77,-2.656 0,-7.48 -18.33,0 -18.33,-19.609 l 0,-98.34"
         inkscape:connector-curvature="0"
         id="path14"
         style="fill:#ffffff;fill-opacity:1;fill-rule:nonzero;stroke:none" /><path
         d="m 1569.43,207.871 c 0,57.07 -33.19,41.094 -33.19,51.289 0,1.621 2.77,2.695 4.13,2.695 4.37,0 8.52,-0.937 12.88,-0.937 4.11,0 8.5,0.937 12.62,0.937 3.01,0 5.44,-4.355 7.11,-6.289 L 1703.8,109.98 c 1.64,-1.914 2.7,-3.007 3.27,-3.007 0.54,0 0.81,0.8 0.81,3.007 l 0,114.59 c 0,35.957 -30.41,25.508 -30.41,34.59 0,1.914 1.35,2.695 2.99,2.695 8.25,0 16.16,-0.937 24.98,-0.937 9.24,0 21.04,0.937 27.63,0.937 1.64,0 2.73,-0.781 2.73,-2.441 0,-7.129 -16.16,-2.148 -16.16,-22.187 l 0,-158.809 c 0,-7.9688 -0.29,-11.7969 -2.47,-11.7969 -1.9,0 -4.64,1.4062 -10.35,7.6758 L 1588.83,207.109 c -0.55,0.547 -3.82,5.196 -5.73,5.196 -1.13,0 -1.92,-0.782 -1.92,-6.289 l 0,-111.9535 c 0,-24.668 24.09,-15.0977 24.09,-22.4805 0,-1.3281 -0.26,-3.5547 -3,-3.5547 -6.59,0 -14.27,0.9571 -27.66,0.9571 -9.6,0 -23.81,-0.9571 -25.72,-0.9571 -3.33,0 -3.58,1.6797 -3.58,3.0469 0,9.5508 24.12,-2.5 24.12,35.8208 l 0,100.976"
         inkscape:connector-curvature="0"
         id="path16"
         style="fill:#ffffff;fill-opacity:1;fill-rule:nonzero;stroke:none" /><path
         d="m 1846.87,238.34 c -0.25,20.019 -22.19,14.531 -22.19,20.488 0,2.5 0.55,3.027 2.74,3.027 10.15,0 19.99,-0.937 30.11,-0.937 8.44,0 16.99,0.937 25.44,0.937 4.46,0 5.27,-0.527 5.27,-2.695 0,-6.562 -19.77,-0.332 -19.77,-20.82 l 0,-147.0314 c 0,-18.6328 24.39,-12.3438 24.39,-20.5078 0,-1.9727 -0.81,-2.7735 -5.43,-2.7735 -6.33,0 -18.14,0.9571 -29.9,0.9571 -16.69,0 -22.45,-0.9571 -26.27,-0.9571 -4.92,0 -5.76,1.3672 -5.76,4.1211 0,7.9493 21.37,-1.0742 21.37,25.9961 l 0,140.1955"
         inkscape:connector-curvature="0"
         id="path18"
         style="fill:#ffffff;fill-opacity:1;fill-rule:nonzero;stroke:none" /><path
         d="m 1978.65,240.645 c -6.9,16.484 -21.13,11.25 -21.13,17.324 0,2.48 1.34,3.867 3.84,3.867 8.49,0 16.99,-0.859 25.2,-0.859 7.42,0 17.77,0.859 21.64,0.859 1.61,0 3.85,-1.113 3.85,-2.793 0.28,-3.867 -11.25,-4.18 -11.25,-14.004 0,-3.828 1.39,-8.223 2.45,-10.703 l 47.96,-112.949 c 5.99,-14.512 7.96,-20.821 11,-20.821 2.67,0 3.55,4.375 4.91,7.657 l 47.68,117.597 c 1.67,4.141 4.93,12.891 3.82,18.672 0,12.637 -17.53,7.403 -17.53,13.77 0,2.715 1.35,3.574 4.1,3.574 5.99,0 12.04,-0.859 18.02,-0.859 13.23,0 17.3,0.859 21.13,0.859 3.04,0 4.7,-1.113 4.7,-3.574 0,-6.114 -7.72,0.781 -15.39,-17.617 L 2065.46,79.1797 c -3.02,-6.8164 -4.95,-15.8789 -9.05,-15.8789 -4.36,0 -7.68,11.4844 -10.11,17.2265 l -67.65,160.1177"
         inkscape:connector-curvature="0"
         id="path20"
         style="fill:#ffffff;fill-opacity:1;fill-rule:nonzero;stroke:none" /><path
         d="m 2528.16,167.227 c 19.23,7.656 34.58,26.035 34.58,47.402 0,52.754 -60.64,47.226 -65.01,47.226 -14.33,0 -29.97,-0.937 -45.82,-0.937 -13.98,0 -12.58,0.937 -17.52,0.937 -3.3,0 -5.46,-1.582 -5.46,-3.203 0,-9.277 23.57,1.914 23.57,-24.316 l 0,-139.3751 c 0,-20.8398 -20.02,-16.9531 -20.02,-23.8476 0,-1.6602 1.12,-3.0469 2.7,-3.0469 10.46,0 20.89,0.8789 31.29,0.8789 22.73,0 29.01,-0.8789 31.5,-0.8789 2.21,0 4.62,-0.5469 4.62,2.1875 0,9.4141 -28.56,0.8594 -28.56,24.4727 l 0,57.6564 c 0,2.793 -1.58,7.676 7.19,7.676 30.76,0 26.63,0.859 36.49,-14.512 l 30.49,-47.8712 c 10.43,-15.586 21.13,-29.6094 41.12,-29.6094 2.43,0 17.8,0 17.8,3.3399 0,6.6015 -13.41,-3.5743 -33.11,26.582 l -45.85,69.2387 z m -54.13,75.605 c 0,10.684 5.82,10.137 15.65,10.137 26.93,0 52.52,-11.27 52.52,-44.649 0,-33.984 -26.42,-38.945 -38.17,-38.945 -12.93,0 -30,-1.328 -30,3.848 l 0,69.609"
         inkscape:connector-curvature="0"
         id="path22"
         style="fill:#ffffff;fill-opacity:1;fill-rule:nonzero;stroke:none" /><path
         d="m 2660.12,116.699 c -1.04,5.489 0.31,8.535 3.03,8.535 3.94,0 3.94,-3.3 5.37,-9.082 3.28,-12.597 19.72,-41.1325 57.53,-41.1325 26.26,0 51.88,14.5508 51.88,43.3005 0,52.793 -111.74,23.243 -111.74,94.688 0,34.805 29.28,51.64 60.98,51.64 33.39,0 42.43,-9.96 46.35,-9.96 2.47,0 3.02,3.027 5.75,3.027 1.6,0 2.94,-0.86 3.26,-3.906 l 4.05,-37.207 c 0.26,-2.227 -0.29,-4.102 -2.98,-4.102 -2.98,0 -4.87,5.723 -5.67,8.223 -8.33,23.515 -28.44,35.586 -52.67,35.586 -21.83,0 -44.94,-10.411 -44.94,-35.586 0,-51.485 111.69,-21.368 111.69,-96.973 0,-22.988 -16.02,-57.5391 -78.61,-57.5391 -20.43,0 -45.36,10.1954 -46.4,15.1563 l -6.88,35.3318"
         inkscape:connector-curvature="0"
         id="path24"
         style="fill:#ffffff;fill-opacity:1;fill-rule:nonzero;stroke:none" /><path
         d="m 2896.67,238.34 c -0.31,20.019 -22.23,14.531 -22.23,20.488 0,2.5 0.58,3.027 2.78,3.027 10.13,0 19.99,-0.937 30.09,-0.937 8.46,0 16.97,0.937 25.45,0.937 4.4,0 5.25,-0.527 5.25,-2.695 0,-6.562 -19.74,-0.332 -19.74,-20.82 l 0,-147.0314 c 0,-18.6328 24.38,-12.3438 24.38,-20.5078 0,-1.9727 -0.8,-2.7735 -5.49,-2.7735 -6.33,0 -18.05,0.9571 -29.85,0.9571 -16.71,0 -22.45,-0.9571 -26.24,-0.9571 -4.98,0 -5.8,1.3672 -5.8,4.1211 0,7.9493 21.4,-1.0742 21.4,25.9961 l 0,140.1955"
         inkscape:connector-curvature="0"
         id="path26"
         style="fill:#ffffff;fill-opacity:1;fill-rule:nonzero;stroke:none" /><path
         d="m 3085.61,234.238 c 0,1.992 1.11,12.344 -2.74,12.617 l -44.7,0 c -17.05,0 -17.6,-4.082 -22.56,-19.16 -0.88,-2.715 -1.03,-6.289 -4.64,-6.289 -1.65,0 -2.78,1.953 -2.78,3.321 l 3.06,26.523 c 0.31,3.281 0,10.605 4.94,10.605 21.41,0 42.56,-0.937 77.89,-0.937 49.58,0 74.79,0.937 80.27,0.937 6.37,0 7.75,-1.582 8.08,-7.89 l 1.34,-21.875 c 0.26,-2.735 0.58,-6.055 -3.05,-6.055 -10.21,0 4.7,20.82 -23.33,20.82 l -39.26,0 c -12.27,0 -10.91,1.114 -10.91,-13.417 l 0,-139.6489 c 0,-22.9883 22.19,-13.9649 22.19,-22.461 0,-0.8203 0.27,-3.3008 -2.49,-3.3008 -6.56,0 -14.22,0.9571 -22.17,0.9571 -30.66,0 -35.85,-0.9571 -37.53,-0.9571 -2.48,0 -3.3,0.8008 -3.3,3.5547 0,6.5821 21.69,3.8477 21.69,20.293 l 0,142.363"
         inkscape:connector-curvature="0"
         id="path28"
         style="fill:#ffffff;fill-opacity:1;fill-rule:nonzero;stroke:none" /><path
         d="m 3255.33,244.648 c -7.12,11.758 -20.58,8.457 -20.58,13.106 0,1.914 1.65,4.101 3.57,4.101 7.39,0 12.63,-0.878 31.22,-0.878 9.06,0 16.42,0.878 19.24,0.878 1.88,0 5.16,-0.253 5.16,-2.753 0,-4.629 -12.82,-4.883 -12.82,-12.852 0,-4.375 3.23,-8.789 4.84,-11.191 l 33.22,-52.871 c 2.19,-3.301 3.82,-4.922 5.43,-4.922 1.39,0 3,1.914 5.22,5.488 l 28.22,45.703 c 1.93,3.027 5.73,7.656 5.73,15.078 0,13.418 -20.53,7.676 -20.53,14.219 0,3.574 2.73,4.101 5.79,4.101 6.54,0 13.4,-0.878 20,-0.878 7.94,0 15.88,0.878 23.82,0.878 1.66,0 2.99,-1.875 2.99,-3.242 0,-3.047 -4.64,-4.14 -6.54,-5.254 -7.41,-4.394 -10.99,-12.05 -15.38,-18.867 l -38.33,-59.687 c -4.44,-6.797 -6.62,-8.242 -6.62,-12.325 l 0,-67.0698 c 0,-23.8282 22.47,-16.1329 22.47,-24.6094 0,-2.4805 -2.41,-2.7735 -6.26,-2.7735 -4.13,0 -19.95,0.9571 -30.1,0.9571 -12.34,0 -22.21,-0.9571 -24.67,-0.9571 -2.52,0 -4.16,0.293 -4.16,3.3008 0,7.6367 21.16,0.5078 21.16,19.9805 l 0,66.2894 c 0,5.195 -4.09,10.644 -6.35,13.925 l -45.74,73.125"
         inkscape:connector-curvature="0"
         id="path30"
         style="fill:#ffffff;fill-opacity:1;fill-rule:nonzero;stroke:none" /><path
         d="m 2255.79,183.574 c 0,-9.375 -0.55,-9.375 10.39,-9.375 l 29.53,0 c 28.36,0 21.1,21.992 27.57,21.992 2.12,0 2.94,-3.027 2.94,-5.214 0,-9.629 -0.51,-18.946 -0.51,-27.832 0,-7.11 0.51,-14.239 0.51,-21.543 0,-2.461 -1.08,-3.575 -2.94,-3.575 -8.38,0 0.79,24.063 -22.07,24.063 l -40.46,0 c -5.77,0 -4.96,-4.649 -4.96,-8.731 l 0,-50.332 c 0,-16.0934 -2.23,-22.7145 20.79,-22.7145 63.04,0 72.32,28.2225 75.92,28.2225 1.94,0 2.24,-2.793 2.24,-3.359 0,-9.7658 -7.17,-19.3557 -13.79,-26.4455 -8.68,-9.6875 -14.73,-9.1797 -26.67,-9.1797 -20.76,0 -41.5,1.5234 -62.32,0.957 -10.94,-0.2539 -22.44,-0.957 -33.4,-0.957 -2.43,0 -4.08,0.5469 -4.08,2.6953 0.53,3.2422 3.29,2.7344 12.02,7.0312 7.1,3.2813 7.7,10.9571 7.7,23.7497 l 0,125.059 c 0,12.422 0,25.605 -14.81,27.852 -2.22,0.527 -8.24,1.054 -8.24,4.121 0,2.207 1.68,3.3 9.67,3.3 51.6,0 65.87,-0.82 77.35,-0.82 5.5,0 30.52,0.82 38.96,0.82 2.23,0 2.81,-2.754 2.81,-6.093 0,-30.489 -3.9,-32.657 -5.53,-32.657 -6.59,0 -2.14,13.164 -6.59,19.434 -6.98,9.375 -35.39,7.715 -46.31,7.715 -26.27,0 -25.72,1.055 -25.72,-17.305 l 0,-50.879"
         inkscape:connector-curvature="0"
         id="path32"
         style="fill:#ffffff;fill-opacity:1;fill-rule:nonzero;stroke:none" /><path
         d="m 2420.07,385.176 c 147.31,0 249.53,95.937 249.53,244.527 0,136.727 -103.59,233.914 -238.35,233.914 -135.51,0 -242.3,-99.824 -242.3,-237.273 0,-139.278 87.62,-241.168 231.12,-241.168 z m -8.63,456.558 c 128.87,0 210.17,-116.929 210.17,-237.125 0,-122.175 -77.35,-199.433 -173.88,-199.433 -130.83,0 -210.77,118.191 -210.77,240.387 0,104.363 63.46,196.171 174.48,196.171"
         inkscape:connector-curvature="0"
         id="path34"
         style="fill:#ffffff;fill-opacity:1;fill-rule:nonzero;stroke:none" /><path
         d="m 2929.43,635.156 c 45.11,17.828 81.1,60.864 81.1,110.856 0,123.867 -142.05,111.054 -152.34,111.054 -33.51,0 -69.88,-2.628 -106.78,-2.628 -32.77,0 -29.56,2.628 -41.08,2.628 -7.75,0 -12.74,-3.843 -12.74,-7.73 0,-21.844 55.07,4.508 55.07,-57.109 l 0,-326.352 c 0,-48.805 -46.86,-39.801 -46.86,-55.934 0,-3.847 2.67,-7.07 6.41,-7.07 24.37,0 48.64,2.617 72.86,2.617 53.23,0 67.94,-2.617 73.77,-2.617 5.06,0 10.86,-1.301 10.86,5.137 0,21.875 -66.75,1.933 -66.75,57.23 l 0,135.555 c 0,6.43 -3.85,17.992 16.59,17.992 72.04,0 62.41,1.906 85.52,-34.035 l 71.33,-112.453 c 24.46,-36.594 49.43,-69.426 96.19,-69.426 5.82,0 56.62,0 56.62,7.734 0,15.469 -46.35,-8.378 -92.51,62.364 l -107.26,162.187 z m -126.48,176.957 c 0,24.992 13.44,23.711 36.58,23.711 63.02,0 122.64,-26.277 122.64,-104.554 0,-79.473 -61.56,-91.059 -89.27,-91.059 -30.16,0 -69.95,-3.133 -69.95,8.988 l 0,162.914"
         inkscape:connector-curvature="0"
         id="path36"
         style="fill:#ffffff;fill-opacity:1;fill-rule:nonzero;stroke:none" /><path
         d="m 3116.75,816.723 c -16.68,27.625 -48.09,19.902 -48.09,30.777 0,4.527 3.85,9.664 8.41,9.664 17.31,0 29.41,-2.766 72.99,-2.766 21.14,0 38.46,2.766 44.87,2.766 4.46,0 12.13,-0.699 12.13,-6.43 0,-10.894 -30.06,-11.492 -30.06,-30.164 0,-10.246 7.65,-20.496 11.52,-26.281 l 77.32,-123.902 c 5.09,-7.672 8.95,-11.555 12.78,-11.555 3.11,0 6.95,4.512 12.02,12.844 l 66.02,107.211 c 4.47,7.004 13.48,17.961 13.48,35.285 0,31.433 -48,18 -48,33.328 0,8.352 6.33,9.664 13.38,9.664 15.32,0 31.43,-2.766 46.75,-2.766 18.56,0 37.12,2.766 55.66,2.766 3.87,0 7.08,-4.547 7.08,-7.691 0,-7.09 -10.79,-9.633 -15.37,-12.215 -17.18,-10.262 -25.59,-28.223 -35.86,-44.293 l -89.66,-139.906 c -10.27,-16.032 -15.37,-19.258 -15.37,-28.883 l 0,-157.238 c 0,-55.844 52.59,-37.844 52.59,-57.758 0,-5.762 -5.82,-6.407 -14.74,-6.407 -9.63,0 -46.87,2.786 -70.32,2.786 -28.68,0 -51.81,-2.786 -57.53,-2.786 -5.78,0 -9.6,0.645 -9.6,7.696 0,17.976 49.32,1.289 49.32,46.867 l 0,155.312 c 0,12.161 -9.61,25.028 -14.72,32.707 l -107,171.368"
         inkscape:connector-curvature="0"
         id="path38"
         style="fill:#ffffff;fill-opacity:1;fill-rule:nonzero;stroke:none" /><path
         d="m 2115.88,462.102 c 3.19,-53.84 50.58,-30.11 50.58,-52.551 0,-6.426 -8.41,-6.426 -15.36,-6.426 -12.23,0 -34.61,2.852 -60.11,2.852 -19.78,0 -40.35,-2.852 -55.46,-2.852 -5.7,0 -7.05,3.223 -7.05,5.789 0,19.25 40.41,5.129 39.71,52.527 l -17.43,248.543 c 0,16.043 -3.22,25.004 -7.05,25.004 -4.56,0 -10.37,-5.754 -16.8,-19.215 L 1894.21,445.41 c -3.22,-5.719 -13.47,-32.012 -19.91,-32.012 -6.42,0 -10.87,14.122 -12.86,18.594 L 1724.9,717.695 c -1.99,5.137 -5.18,7.055 -7.78,7.055 -1.87,0 -3.84,-3.23 -4.35,-9.633 l -18.75,-224.851 c -3.25,-85.168 57.53,-56.977 57.53,-80.09 0,-6.406 -7.04,-7.051 -16.08,-7.051 -8.29,0 -37.1,2.852 -55.98,2.852 -33.28,0 -44.19,-2.852 -56.6,-2.852 -4.57,0 -6.43,3.223 -6.43,7.715 0,21.824 40.94,-4.492 45.41,62.211 7.77,104.66 15.45,172.691 15.45,240.679 0,150.836 -49.64,114.915 -49.64,136.719 0,5.742 5.05,7.067 10.85,7.067 11.52,0 23.04,-2.789 35.26,-2.789 11.51,0 22.92,2.789 34.19,2.789 9.04,0 10.3,-10.883 13.48,-17.961 l 153.06,-326.028 c 7.15,-13.468 9.63,-19.25 14.21,-19.25 3.2,0 9.55,13.453 19.88,34.668 l 152.96,306.778 c 3.72,7.043 8.87,22.437 16.45,21.793 6.45,0 26.85,-2.789 29.97,-2.789 14.84,0 20.54,2.789 30.78,2.789 3.86,0 6.45,-3.84 6.45,-7.68 0,-20.539 -51.33,7.023 -48.7,-69.344 l 19.36,-318.39"
         inkscape:connector-curvature="0"
         id="path40"
         style="fill:#ffffff;fill-opacity:1;fill-rule:nonzero;stroke:none" /><path
         d="m 1336.59,670.004 c 0,-21.844 -1.24,-21.844 24.26,-21.844 l 69.15,0 c 66.38,0 49.31,51.391 64.45,51.391 5.09,0 6.95,-7.051 6.95,-12.184 0,-22.523 -0.83,-44.293 -0.83,-64.594 0,-16.664 0.83,-33.398 0.83,-50.703 0,-5.797 -2.49,-8.332 -6.95,-8.332 -19.71,0 1.93,56.481 -51.64,56.481 l -94.72,0 c -13.49,0 -11.5,-10.961 -11.5,-20.555 l 0,-118.098 c 0,-37.875 -5.07,-53.285 48.64,-53.285 147.56,0 169.32,66.129 177.64,66.129 4.43,0 5.07,-6.43 5.07,-7.691 0,-23.121 -16.6,-45.551 -31.91,-62.285 -20.53,-23.321 -34.63,-22.063 -62.56,-22.063 -48.64,0 -97.19,3.945 -145.8,2.688 -25.49,-0.696 -52.35,-2.688 -77.87,-2.688 -5.8,0 -9.63,1.359 -9.63,6.516 1.23,7.773 7.7,6.515 28.2,16.875 16.58,7.676 17.93,25.652 17.93,55.804 l 0,292.532 c 0,28.914 0,59.761 -34.61,64.929 -5.08,1.262 -19.18,2.52 -19.18,9.95 0,5.125 3.81,7.703 22.38,7.703 120.69,0 153.96,-2.731 180.87,-2.731 12.77,0 71.44,2.731 91.34,2.731 5.06,0 6.33,-6.41 6.33,-14.071 0,-71.261 -8.94,-76.41 -12.77,-76.41 -15.45,0 -5.16,30.832 -15.45,45.571 -16.48,21.843 -82.87,18.011 -108.5,18.011 -61.36,0 -60.12,2.578 -60.12,-40.465 l 0,-119.312"
         inkscape:connector-curvature="0"
         id="path42"
         style="fill:#ffffff;fill-opacity:1;fill-rule:nonzero;stroke:none" /><path
         d="M 33.4844,893.672 1.36328,859.938 C 0.980469,835.625 0.484375,805.07 0.277344,790.035 -2.84375,551.199 13.4258,179.707 401.996,0 c 205.637,95.2734 361.223,258.945 402.063,512.82 23.828,147.008 9.531,286.645 9.707,380.524 L 33.4844,893.672 z M 403.848,27.3828 C -17.1172,222.109 33.3438,656.957 33.5391,860.285 L 778.531,859.547 C 778.336,656.188 825.211,221.191 403.848,27.3828"
         inkscape:connector-curvature="0"
         id="path44"
         style="fill:#ffffff;fill-opacity:1;fill-rule:nonzero;stroke:none" /><path
         d="m 244.703,359.871 c -29.832,-31.93 -59.297,-63.445 -69.242,-74.07 -2.281,-2.442 -2.508,-4.942 -1.145,-6.465 2.071,-2.266 4.848,-5.137 5.957,-5.352 1.852,-0.39 3.168,-1.211 6.352,2.227 1.313,1.465 34.121,33.137 72.863,70.441 0,0 -3.918,1.981 -7.332,4.989 -3.418,3.086 -7.453,8.23 -7.453,8.23"
         inkscape:connector-curvature="0"
         id="path46"
         style="fill:#ffffff;fill-opacity:1;fill-rule:nonzero;stroke:none" /><path
         d="m 264.688,368.352 c 7.609,-7.368 20.003,-14.493 20.003,-14.493 l -6.843,-6.554 c -2.575,-2.813 -12.2,1.621 -21.5,9.883 -9.262,8.308 -14.7,17.363 -12.09,20.175 l 7.566,6.867 c 0,0 5.293,-8.593 12.864,-15.878"
         inkscape:connector-curvature="0"
         id="path48"
         style="fill:#ffffff;fill-opacity:1;fill-rule:nonzero;stroke:none" /><path
         d="m 605.016,286.23 c 6.101,6.172 6.425,11.856 6.425,11.856 l 6.778,-3.301 c 1.953,-2.09 0.312,-9.922 -5.957,-16.055 -6.25,-6.113 -14.746,-8.164 -16.758,-6.054 l -3.574,7.265 c 0,0 6.699,-0.117 13.086,6.289"
         inkscape:connector-curvature="0"
         id="path50"
         style="fill:#ffffff;fill-opacity:1;fill-rule:nonzero;stroke:none" /><path
         d="m 594.801,297.18 c 4.012,3.621 5.359,8.465 5.359,8.465 l 4.375,-3.008 c 1.477,-1.516 0.149,-6.465 -4.433,-10.891 -4.551,-4.512 -10.762,-6.023 -12.227,-4.449 l -2.578,4.793 c 0,0 5.488,1.465 9.504,5.09"
         inkscape:connector-curvature="0"
         id="path52"
         style="fill:#ffffff;fill-opacity:1;fill-rule:nonzero;stroke:none" /><path
         d="m 615.543,637.242 -7.891,-7.008 c -10.839,-4.148 -35.468,14.668 -54.839,31.653 -12.958,11.351 -38.965,40.011 -31.563,51.597 l 3.277,3.336 c -2.343,1.403 -4.355,2.614 -5.879,3.434 -2.144,1.144 -5.031,1.957 -8.3,1.547 -3.051,-0.352 -5.563,-1.645 -5.817,-4.168 -0.547,-5.168 2.442,-12.024 6.567,-20.156 4.105,-8.137 20.293,-31.602 52.824,-57.555 14.863,-11.863 31.894,-19.18 44.187,-23.668 2.207,-0.813 9.914,-2.426 13.282,0.91 3.429,3.402 -0.36,9.383 -2.969,15.125 -0.664,1.52 -1.68,3.18 -2.879,4.953"
         inkscape:connector-curvature="0"
         id="path54"
         style="fill:#ffffff;fill-opacity:1;fill-rule:nonzero;stroke:none" /><path
         d="m 301.184,617.418 c -34.653,34.43 -47.829,42.441 -63.418,49.141 -8.114,3.5 -16.196,6.14 -18.563,5.203 -6.808,-2.563 -17,-7.043 -23.328,-12.586 -4.559,-4.082 -4.137,-6.008 -1.652,-7.328 2.48,-1.364 20.09,-5.188 36.093,-13.75 28.118,-14.985 80.801,-51.688 195.715,-170.477 58.383,-60.355 150.274,-153.754 150.274,-153.754 l 2.343,1.867 c 0,0 -133.683,149.93 -238.011,260.832 -14.817,15.77 -27.828,29.258 -39.453,40.852 z m -23.512,141.258 c -0.027,-2.383 -0.027,-5.11 -0.027,-7.922 0.011,-7.883 7.199,-73.289 44.968,-120.465 C 355.156,589.605 453.57,472.34 469.238,453.715 483.949,436.27 580.445,323.406 592.594,309.082 c 0.496,-0.598 1.152,-1.355 1.25,-1.504 0.039,-0.117 -1.321,-3.074 -4.18,-5.39 -3.105,-2.422 -6.348,-2.684 -6.348,-2.684 -0.371,0.262 -2.539,2.527 -2.941,2.976 -3.496,4.083 -170.219,170.836 -186.496,186.551 -16.25,15.676 -102.059,98.824 -137.496,121.496 -30.68,19.602 -44.613,30.582 -78.278,33.418 0,0 -23.96,0.864 -25.566,2.051 -0.312,0.203 0.133,1.27 0.727,1.508 14.804,6.055 47.238,24.914 72.804,49.25 35.895,34.031 47.297,57.875 49.082,61.57 0.418,0.946 2.536,1.149 2.52,0.352"
         inkscape:connector-curvature="0"
         id="path56"
         style="fill:#ffffff;fill-opacity:1;fill-rule:nonzero;stroke:none" /><path
         d="m 208.91,708.145 c 3.77,3.324 17.684,17.445 29.41,31.195 12.317,14.504 18.832,27.453 18.832,27.453 0,0 1.864,4.066 1.559,6.859 -0.277,2.192 -2.555,3.063 -3.406,3.832 -1.313,1.164 -31.336,-12.418 -44.59,-24.789 -1.617,-1.5 -4.461,-7.582 -5.805,-12.027 -1.156,-3.777 8.789,-14.406 2.235,-30.559 -0.911,-2.234 1.21,-2.476 1.765,-1.964 z M 198.281,688.613 C 183.047,675.84 164.023,664.098 147.18,657.25 c -10.617,-4.336 -25.582,0.508 -14.821,20.988 3.266,6.192 7.911,13.914 14.289,22.387 20.055,26.621 55.957,59.453 90.77,78.285 10.578,5.723 20.348,9.406 24.762,9.156 8.574,-0.511 9.058,-7.777 7.504,-14.613 -3.489,-15.086 -28.606,-48.902 -71.403,-84.84"
         inkscape:connector-curvature="0"
         id="path58"
         style="fill:#ffffff;fill-opacity:1;fill-rule:nonzero;stroke:none" /><path
         d="m 391.309,479.488 c -6.993,-6.605 -115.332,-110.543 -115.332,-110.543 1.55,-1.562 6.148,-4.902 6.148,-4.902 0,0 99.469,95.574 106.883,102.504 2.015,1.867 6.398,5.93 8,7.285 l -5.699,5.656"
         inkscape:connector-curvature="0"
         id="path60"
         style="fill:#ffffff;fill-opacity:1;fill-rule:nonzero;stroke:none" /><path
         d="m 595.551,607.629 c 1.515,0.16 3.164,0.254 4.551,0.336 1.613,0.098 3.761,0.492 4.121,0.824 0.918,0.699 1.515,1.738 -0.274,1.77 -5.136,0.175 -14.304,2.734 -24.773,7.668 -6.406,-1.711 -16.863,-4.551 -29.196,-10.036 -15.625,-6.976 -49.843,-27.472 -119.878,-91.726 l 5.484,-6.399 c 24.277,21.911 56.738,50.571 74.398,62.114 31.262,20.414 53.922,29.562 69.133,33.175 4.492,1.067 11.258,1.872 16.434,2.274"
         inkscape:connector-curvature="0"
         id="path62"
         style="fill:#ffffff;fill-opacity:1;fill-rule:nonzero;stroke:none" /><path
         d="m 527.324,658.609 c -19.238,20.036 -25.332,34.422 -28.418,45 -0.117,0.395 -0.25,0.743 -0.355,0.996 -0.098,0.153 -0.922,0.356 -1.149,-0.46 -0.113,-0.399 -0.254,-0.899 -0.293,-1.301 -1.679,-20.68 0.196,-29.367 -8.515,-50.496 -7.285,-17.641 -20.117,-40.102 -37.739,-60.602 -10.187,-11.906 -27.46,-31.398 -43.355,-49.543 l 11.168,-13.215 c 1.074,1.282 4.633,5 8.691,9.34 53.418,57.121 99.922,92.527 116.594,104.758 -6.031,5.039 -11.609,10.32 -16.629,15.523"
         inkscape:connector-curvature="0"
         id="path64"
         style="fill:#ffffff;fill-opacity:1;fill-rule:nonzero;stroke:none" /><path
         d="m 369.004,499.918 c -22.566,-25.469 -45.215,-50.539 -51.797,-57.844 -5.562,-6.207 -54.859,-59.203 -54.859,-59.203 0,0 1.16,-2.129 2.726,-3.84 1.528,-1.715 4.129,-4.043 4.129,-4.043 0,0 103.379,106.117 111.219,114.285 l -11.418,10.645"
         inkscape:connector-curvature="0"
         id="path66"
         style="fill:#ffffff;fill-opacity:1;fill-rule:nonzero;stroke:none" /><path
         d="m 546.188,728.754 c 0,0.812 0.089,1.527 0.125,2.312 -5.391,1.485 -9.504,1.231 -11.661,-1.086 -6.781,-7.328 8.246,-32.242 33.539,-55.695 25.301,-23.426 51.336,-36.515 58.075,-29.191 2.722,2.933 1.875,8.722 -1.719,16.136 -36.75,-4.273 -78.359,43.997 -78.359,67.524"
         inkscape:connector-curvature="0"
         id="path68"
         style="fill:#ffffff;fill-opacity:1;fill-rule:nonzero;stroke:none" /><path
         d="m 650.387,685.902 c -1.485,-2.722 -7.024,-9.746 -15.5,-13.484 -9.364,-4.09 -21.844,-4.738 -28.309,-2.707 -29.082,8.973 -46.535,38.633 -46.535,38.633 -22.898,37.062 7.812,52.883 10.371,53.41 0,0 -3.25,-12.121 -1.191,-20.387 1.777,-7.406 6.172,-13.105 7.55,-17.215 2.84,-8.168 -1.074,-13.843 -2.949,-16.484 -1.047,-1.402 1.66,-0.633 2.266,-0.23 0.457,0.339 0.762,0.761 1.777,1.453 4.207,3.156 8.086,8.062 6.875,13.242 -2.687,11.433 -10.918,18.609 -1.191,42.242 5.957,14.359 19.785,28.578 21.094,29.438 2.168,1.472 3.593,3.347 3.652,1.824 0.019,-1.574 2.519,-12.207 3.808,-19.09 1.258,-6.883 9.239,-20.906 7.5,-40.313 -1.73,-19.414 -33.496,-40.699 -37.871,-42.058 -1.425,-0.465 -3.652,-1.781 -4.238,-2.289 -1.113,-1.102 0.508,-1.352 1.258,-1.481 1.691,-0.316 15.195,2.91 26.035,10.457 9.055,6.344 17.727,15.871 20.723,21.516 5.547,10.434 8.234,24.891 8.781,26.266 0.898,2.246 1.844,2.148 2.117,0.945 0.293,-1.172 2.551,-9.68 3.418,-14.024 0.481,-2.414 1.856,-9.121 1.887,-16.535 0.098,-14.59 -4.152,-21.343 -12.746,-27.855 -4.883,-3.766 -10.235,-5.141 -16.094,-5.731 l -2.039,-0.343 c -0.82,-0.153 -1.563,-0.391 0.215,-1.27 0.488,-0.266 1.23,-0.441 2.058,-0.867 4.836,-2.184 15.032,-1.945 21.582,2.094 2.961,1.851 7.012,4.726 12.454,10.019 2.039,1.957 4.812,5.602 5.085,4.387 0.391,-1.688 0.958,-8.27 -1.843,-13.563 z m 9.824,33.446 c -3.574,-4.114 -9.668,-13.688 -13.34,-16.926 3.965,3.484 6.192,12.016 1.902,34.348 -3.015,15.625 -4.949,20.812 -7.019,25.964 -1.152,2.946 -2.93,2.192 -5.02,-0.066 -1.992,-2.227 -6.699,-10.352 -6.836,-10.816 -0.46,-1.907 0.04,-0.133 -7.277,22.496 -4.617,14.375 -6.551,24.406 -6.348,29.445 0.11,2.687 0.266,5.465 0.364,7.477 0.105,1.753 -0.91,1.753 -5.469,-0.239 -2.434,-1.031 -21.816,-14.535 -29.824,-34.832 -4.629,-11.734 -4.961,-21.41 -5.684,-15.511 -1.398,11.507 -1.183,11.355 -2.344,10.972 -6.398,-2.105 -28.808,-12.269 -28.863,-42.558 -0.004,-25.789 48.481,-80.454 87.887,-68.071 0,0 29.902,5.711 30.457,32.645 0.558,26.972 -2.586,25.672 -2.586,25.672"
         inkscape:connector-curvature="0"
         id="path70"
         style="fill:#ffffff;fill-opacity:1;fill-rule:nonzero;stroke:none" /></g></g></svg>